<?xml version="1.0" standalone="no"?>
<!DOCTYPE svg PUBLIC "-//W3C//DTD SVG 20010904//EN"
 "http://www.w3.org/TR/2001/REC-SVG-20010904/DTD/svg10.dtd">
<svg version="1.0" xmlns="http://www.w3.org/2000/svg"
 width="150.000000pt" height="37.000000pt" viewBox="0 0 150.000000 37.000000"
 preserveAspectRatio="xMidYMid meet">

<g transform="translate(0.000000,37.000000) scale(0.100000,-0.100000)"
fill="#000000" stroke="none">
<path d="M61 293 c17 -32 36 -62 41 -67 15 -17 9 -38 -32 -108 -22 -39 -40
-71 -40 -72 0 -1 39 -2 86 -1 l86 0 44 77 43 76 -42 76 -42 76 -88 0 -88 0 32
-57z"/>
<path d="M390 305 c0 -8 7 -15 15 -15 8 0 15 7 15 15 0 8 -7 15 -15 15 -8 0
-15 -7 -15 -15z"/>
<path d="M667 313 c-11 -10 -8 -192 3 -213 18 -33 90 -36 90 -4 0 9 -11 14
-29 14 -34 0 -41 14 -41 76 0 42 1 44 30 44 23 0 30 4 30 20 0 16 -7 20 -30
20 -25 0 -30 4 -30 25 0 24 -10 32 -23 18z"/>
<path d="M1210 194 c0 -96 3 -125 13 -122 8 3 13 40 15 126 2 104 0 122 -13
122 -13 0 -15 -20 -15 -126z"/>
<path d="M843 258 c-55 -14 -82 -97 -48 -145 20 -28 75 -46 106 -34 64 24 86
106 40 154 -27 30 -54 36 -98 25z m69 -45 c37 -33 11 -103 -38 -103 -31 0 -54
26 -54 60 0 53 53 78 92 43z"/>
<path d="M1063 262 c-30 -5 -63 -48 -63 -84 0 -39 40 -78 80 -78 45 0 67 15
80 55 21 63 -29 118 -97 107z m55 -44 c19 -19 15 -66 -7 -78 -31 -16 -49 -12
-67 15 -15 23 -15 27 0 50 18 27 54 33 74 13z"/>
<path d="M1343 255 c-38 -16 -53 -42 -53 -89 0 -53 35 -89 88 -89 48 0 70 15
89 61 19 46 -3 97 -51 117 -41 18 -33 18 -73 0z m77 -45 c24 -24 25 -48 4 -78
-31 -44 -104 -16 -104 40 0 24 35 58 60 58 11 0 29 -9 40 -20z"/>
<path d="M397 253 c-4 -3 -7 -46 -7 -95 0 -72 3 -88 15 -88 12 0 15 17 15 95
0 87 -5 107 -23 88z"/>
<path d="M474 245 c-3 -6 -4 -47 -2 -91 2 -62 6 -79 18 -79 11 0 16 15 18 65
4 72 18 96 51 85 18 -6 21 -14 21 -69 0 -41 5 -68 13 -75 22 -17 27 -3 27 71
0 88 -17 108 -91 106 -29 0 -53 -6 -55 -13z"/>
<path d="M1127 78 l-35 -43 -30 16 c-42 24 -62 8 -26 -20 50 -40 115 -11 128
57 3 17 4 32 2 32 -2 0 -19 -19 -39 -42z"/>
</g>
</svg>
