<svg xmlns="http://www.w3.org/2000/svg" data-name="Layer 1" viewBox="0 0 64 64"><circle cx="32" cy="32" r="2" fill="#e6e6e6"/><circle cx="51.5" cy="52.06" r="9" fill="#e6e6e6"/><path fill="#8698b3" d="M17.75 6.05a5 5 0 0 1 5.19-.58l.62.28a.83.83 0 0 1 .17 1.34l-6.42 4.5-.45 6.72a4.2 4.2 0 0 1-2 3.48c-.19.09-.41-.07-.44-.32l-.94-7.61L8.9 17.5a2.21 2.21 0 0 1-3.23-.7l-3.3-4.72a.38.38 0 0 1 .15-.59l.64-.13a2.77 2.77 0 0 1 2.29.64l1.86 1.55Z"/><path fill="#7d8da6" d="M12.48 10.1 7.4 7.91a.41.41 0 0 1-.07-.67l.51-.34a5.91 5.91 0 0 1 4.66-.85l4 .93Z"/><path fill="#83abe6" d="M50 8h2a3 3 0 0 1 3 3v5h-8v-5a3 3 0 0 1 3-3Z"/><circle cx="51" cy="5" r="3" fill="#f8d6a9"/><path fill="#83abe6" d="M11 34h2a3 3 0 0 1 3 3v5H8v-5a3 3 0 0 1 3-3Z"/><circle cx="12" cy="31" r="3" fill="#f8d6a9"/><path fill="#d17b11" d="M51.5 51.28V57l-5-2.14v-5.72l5 2.14z"/><path fill="#d18e3d" d="M56.5 49.14v5.72l-5 2.14v-5.72l5-2.14z"/><path fill="#d1a166" d="m56.5 49.14-5 2.14-5-2.14 5-2.14 5 2.14z"/><path d="m21.77 45.64 9.07-10.88A2.8 2.8 0 0 0 32 35a3 3 0 0 0 3-3 3 3 0 0 0-.37-1.41L43.47 20H61v-2H43a1 1 0 0 0-.77.36l-9.07 10.88A2.8 2.8 0 0 0 32 29a3 3 0 0 0-3 3 3 3 0 0 0 .37 1.41L20.53 44H3v2h18a1 1 0 0 0 .77-.36ZM32 31a1 1 0 1 1-1 1 1 1 0 0 1 1-1ZM24.242 25.209l1.486-1.338 1.338 1.486-1.486 1.338z"/><path d="m26.92 28.188 1.487-1.338 1.338 1.486-1.487 1.338zM19.26 19.667l1.487-1.338.97 1.078-1.487 1.338zM21.563 22.234l1.487-1.338 1.338 1.487L22.9 23.72zM34.26 35.667l1.486-1.338 1.338 1.486-1.486 1.338zM36.928 38.646l1.486-1.338 1.338 1.486-1.486 1.338zM39.607 41.62l1.487-1.338 1.338 1.486-1.487 1.338zM14 52h24v2H14zM24 48h12v2H24zM24 56h12v2H24zM7 37v5a1 1 0 0 0 1 1h8a1 1 0 0 0 1-1v-5a4 4 0 0 0-2-3.4 4 4 0 1 0-6.08 0A4 4 0 0 0 7 37zm5-8a2 2 0 1 1-2 2 2 2 0 0 1 2-2zm-3 8a2 2 0 0 1 2-2h2a2 2 0 0 1 2 2v4H9zM51 1a4 4 0 0 0-3 6.57A4 4 0 0 0 46 11v5a1 1 0 0 0 1 1h8a1 1 0 0 0 1-1v-5a4 4 0 0 0-2-3.4A4 4 0 0 0 51 1zm0 2a2 2 0 1 1-2 2 2 2 0 0 1 2-2zm3 12h-6v-4a2 2 0 0 1 2-2h2a2 2 0 0 1 2 2zm-7.89 40.78 5 2.14a1 1 0 0 0 .78 0l5-2.14a1 1 0 0 0 .61-.92v-5.72a1 1 0 0 0-.61-.92l-5-2.14a1 1 0 0 0-.78 0l-5 2.14a1 1 0 0 0-.61.92v5.72a1 1 0 0 0 .61.92zm9.39-1.58-3 1.28V52l3-1.29zm-4-6.11 2.46 1-2.46 1.11-2.5-1.06zm-4 2.57 3 1.29v3.53l-3-1.28zM4.85 17.37a3.53 3.53 0 0 0 2.38 1.54 2.94 2.94 0 0 0 2.29-.62l3.19-2.54.71 5.84a1.42 1.42 0 0 0 .74 1.08 1.18 1.18 0 0 0 .58.14 1.35 1.35 0 0 0 .59-.14 5.18 5.18 0 0 0 2.53-4.3l.42-6.24 6-4.22A1.71 1.71 0 0 0 25 6.32a1.77 1.77 0 0 0-1-1.48l-.62-.28a6 6 0 0 0-6.19.68l-.91.65-3.52-.81a7 7 0 0 0-5.45 1l-.51.35a1.35 1.35 0 0 0-.58 1.27A1.4 1.4 0 0 0 7 8.83l3.23 1.39-2.88 2.08-1.26-1.05A3.76 3.76 0 0 0 3 10.38l-.64.13a1.29 1.29 0 0 0-.94.79 1.42 1.42 0 0 0 .16 1.35zm4-9.92A4.87 4.87 0 0 1 12.28 7l1.82.42-2 1.41zm-4 5.34 1.86 1.55a1 1 0 0 0 1.22 0l10.41-7.48a4 4 0 0 1 4.18-.45l.27.12-6.07 4.26a1 1 0 0 0-.43.75l-.45 6.72a3.77 3.77 0 0 1-.61 1.85l-.78-6.35a1 1 0 0 0-.61-.8 1 1 0 0 0-.38-.08 1 1 0 0 0-.62.22l-4.56 3.62a.94.94 0 0 1-.77.21 1.59 1.59 0 0 1-1-.7l-2.75-3.91a1.88 1.88 0 0 1 1.05.47z"/><path d="M51.5 62.06A10 10 0 1 0 45 44.52l-1.18-1.27-1.49 1.34 1 1.12.28.28a10 10 0 0 0 7.89 16.07Zm0-18a8 8 0 1 1-8 8 8 8 0 0 1 8-8Z"/></svg>